<svg width="30" height="30" viewBox="0 0 30 30" fill="none" xmlns="http://www.w3.org/2000/svg">
<g id="ic:round-done">
<rect width="30" height="30" rx="4" fill="#D3FFE4"/>
<path id="Vector" d="M11.25 20.25L6.87501 15.875C6.76061 15.7592 6.62436 15.6673 6.47415 15.6045C6.32395 15.5418 6.16279 15.5095 6.00001 15.5095C5.83723 15.5095 5.67607 15.5418 5.52587 15.6045C5.37566 15.6673 5.23941 15.7592 5.12501 15.875C5.00921 15.9894 4.91727 16.1257 4.85452 16.2759C4.79177 16.4261 4.75946 16.5872 4.75946 16.75C4.75946 16.9128 4.79177 17.074 4.85452 17.2242C4.91727 17.3744 5.00921 17.5106 5.12501 17.625L10.3625 22.8625C10.85 23.35 11.6375 23.35 12.125 22.8625L25.375 9.62501C25.4908 9.51061 25.5828 9.37435 25.6455 9.22415C25.7083 9.07395 25.7406 8.91279 25.7406 8.75001C25.7406 8.58723 25.7083 8.42607 25.6455 8.27587C25.5828 8.12566 25.4908 7.98941 25.375 7.87501C25.2606 7.75921 25.1244 7.66727 24.9742 7.60452C24.824 7.54177 24.6628 7.50946 24.5 7.50946C24.3372 7.50946 24.1761 7.54177 24.0259 7.60452C23.8757 7.66727 23.7394 7.75921 23.625 7.87501L11.25 20.25Z" fill="#15BB44"/>
</g>
</svg>
