<svg width="15" height="15" viewBox="0 0 15 15" fill="none" xmlns="http://www.w3.org/2000/svg">
<g id="cryptocurrency-color:qiwi" clip-path="url(#clip0_1712_984)">
<g id="Group">
<path id="Vector" d="M7.5 15C11.6421 15 15 11.6421 15 7.5C15 3.35786 11.6421 0 7.5 0C3.35786 0 0 3.35786 0 7.5C0 11.6421 3.35786 15 7.5 15Z" fill="#FF8C00"/>
<path id="Vector_2" d="M10.5891 9.11484C10.613 9.30281 10.5595 9.37547 10.5 9.37547C10.4405 9.37547 10.357 9.30281 10.268 9.1575C10.1789 9.01219 10.1428 8.84812 10.1906 8.76375C10.2202 8.70891 10.2858 8.68453 10.3631 8.715C10.5178 8.77594 10.5773 9.01172 10.5891 9.11484ZM9.75609 9.52734C9.94031 9.68484 9.99422 9.86625 9.89859 9.99984C9.86857 10.0349 9.83113 10.0629 9.78897 10.0817C9.74681 10.1005 9.701 10.1097 9.65484 10.1086C9.55209 10.1096 9.45252 10.0729 9.375 10.0055C9.20859 9.86016 9.16078 9.61781 9.26766 9.48469C9.29047 9.45645 9.31966 9.43403 9.35283 9.41928C9.38599 9.40453 9.42219 9.39787 9.45844 9.39984C9.55359 9.39984 9.66094 9.44203 9.75609 9.52687V9.52734ZM3.28125 6.98156C3.28125 4.67859 5.11406 2.8125 7.37531 2.8125C9.63703 2.8125 11.4698 4.67906 11.4698 6.98156C11.4699 7.73314 11.2708 8.47132 10.8928 9.12094C10.8806 9.13922 10.8506 9.13312 10.845 9.10875C10.7025 8.08453 10.0894 7.52109 9.19688 7.35141C9.11906 7.33922 9.10734 7.29047 9.20859 7.27875C9.48234 7.25437 9.86906 7.26047 10.0711 7.29703C10.0834 7.19029 10.0895 7.08292 10.0894 6.97547C10.0894 5.45437 8.87531 4.21828 7.38141 4.21828C5.88797 4.21828 4.67391 5.45437 4.67391 6.97547C4.67391 8.49703 5.88797 9.73312 7.38141 9.73312H7.50656C7.46406 9.48707 7.44601 9.23742 7.45266 8.98781C7.45875 8.81812 7.49484 8.79375 7.56609 8.92688C7.94109 9.58781 8.47641 10.1817 9.52406 10.4175C10.3809 10.612 11.2378 10.8361 12.1603 12.03C12.2433 12.1331 12.1186 12.2419 12.0234 12.157C11.0831 11.3086 10.2263 11.0297 9.44672 11.0297C8.57156 11.0363 7.97672 11.1516 7.37531 11.1516C5.11406 11.1516 3.28125 9.28406 3.28125 6.98109V6.98156Z" fill="white"/>
</g>
</g>
<defs>
<clipPath id="clip0_1712_984">
<rect width="15" height="15" fill="white"/>
</clipPath>
</defs>
</svg>
