<svg width="22" height="22" viewBox="0 0 22 22" fill="none" xmlns="http://www.w3.org/2000/svg">
<g id="tabler:link">
<path id="Vector" d="M8.24997 13.75L13.75 8.25M10.0833 5.5L10.5077 5.00866C11.3674 4.14913 12.5333 3.6663 13.7489 3.66638C14.9646 3.66647 16.1304 4.14947 16.9899 5.00912C17.8495 5.86878 18.3323 7.03467 18.3322 8.25032C18.3321 9.46597 17.8491 10.6318 16.9895 11.4913L16.5 11.9167M11.9166 16.5L11.5527 16.9895C10.683 17.8495 9.50927 18.3318 8.28618 18.3318C7.06308 18.3318 5.88932 17.8495 5.01963 16.9895C4.59096 16.5656 4.25064 16.0609 4.01837 15.5046C3.7861 14.9483 3.6665 14.3515 3.6665 13.7486C3.6665 13.1458 3.7861 12.5489 4.01837 11.9926C4.25064 11.4363 4.59096 10.9316 5.01963 10.5077L5.49997 10.0833" stroke="#5F86FF" stroke-width="2" stroke-linecap="round" stroke-linejoin="round"/>
</g>
</svg>
