<svg width="46" height="46" viewBox="0 0 46 46" fill="none" xmlns="http://www.w3.org/2000/svg">
<g id="streamline:money-cash-coins-stack-accounting-billing-payment-stack-cash-coins-currency-money-finance" clip-path="url(#clip0_950_97)">
<g id="Group">
<path id="Vector" d="M29.5714 24.6429C37.7373 24.6429 44.3571 21.7007 44.3571 18.0714C44.3571 14.4421 37.7373 11.5 29.5714 11.5C21.4055 11.5 14.7857 14.4421 14.7857 18.0714C14.7857 21.7007 21.4055 24.6429 29.5714 24.6429Z" stroke="#FFB11A" stroke-width="3" stroke-linecap="round" stroke-linejoin="round"/>
<path id="Vector_2" d="M14.7857 18.0714V37.7857C14.7857 41.4 21.3571 44.3571 29.5714 44.3571C37.7857 44.3571 44.3571 41.4 44.3571 37.7857V18.0714" stroke="#FFB11A" stroke-width="3" stroke-linecap="round" stroke-linejoin="round"/>
<path id="Vector_3" d="M44.3571 27.9286C44.3571 31.5429 37.7857 34.5 29.5714 34.5C21.3571 34.5 14.7857 31.5429 14.7857 27.9286M29.2429 4.92856C25.4035 2.55916 20.9344 1.41323 16.4286 1.64285C8.24714 1.64285 1.64285 4.59999 1.64285 8.21428C1.64285 10.1529 3.54857 11.8943 6.57142 13.1429" stroke="#FFB11A" stroke-width="3" stroke-linecap="round" stroke-linejoin="round"/>
<path id="Vector_4" d="M6.57142 32.8571C3.54857 31.6086 1.64285 29.8671 1.64285 27.9286V8.21429" stroke="#FFB11A" stroke-width="3" stroke-linecap="round" stroke-linejoin="round"/>
<path id="Vector_5" d="M6.57142 23C3.54857 21.7514 1.64285 20.01 1.64285 18.0714" stroke="#FFB11A" stroke-width="3" stroke-linecap="round" stroke-linejoin="round"/>
</g>
</g>
<defs>
<clipPath id="clip0_950_97">
<rect width="46" height="46" fill="white"/>
</clipPath>
</defs>
</svg>
