<svg width="16" height="16" viewBox="0 0 16 16" fill="none" xmlns="http://www.w3.org/2000/svg">
<g id="gg:dice-3" clip-path="url(#clip0_1905_736)">
<g id="Group">
<path id="Vector" d="M6.66668 8C6.66668 7.64638 6.80715 7.30724 7.0572 7.05719C7.30725 6.80714 7.64639 6.66667 8.00001 6.66667C8.35363 6.66667 8.69277 6.80714 8.94282 7.05719C9.19287 7.30724 9.33334 7.64638 9.33334 8C9.33334 8.35362 9.19287 8.69276 8.94282 8.94281C8.69277 9.19286 8.35363 9.33333 8.00001 9.33333C7.64639 9.33333 7.30725 9.19286 7.0572 8.94281C6.80715 8.69276 6.66668 8.35362 6.66668 8ZM11.2967 9.928C10.9431 9.928 10.6039 10.0685 10.3539 10.3185C10.1038 10.5686 9.96334 10.9077 9.96334 11.2613C9.96334 11.615 10.1038 11.9541 10.3539 12.2041C10.6039 12.4542 10.9431 12.5947 11.2967 12.5947C11.6503 12.5947 11.9894 12.4542 12.2395 12.2041C12.4895 11.9541 12.63 11.615 12.63 11.2613C12.63 10.9077 12.4895 10.5686 12.2395 10.3185C11.9894 10.0685 11.6503 9.928 11.2967 9.928ZM3.37001 4.70333C3.37001 4.34971 3.51049 4.01057 3.76053 3.76052C4.01058 3.51047 4.34972 3.37 4.70334 3.37C5.05697 3.37 5.3961 3.51047 5.64615 3.76052C5.8962 4.01057 6.03668 4.34971 6.03668 4.70333C6.03668 5.05695 5.8962 5.39609 5.64615 5.64614C5.3961 5.89619 5.05697 6.03667 4.70334 6.03667C4.34972 6.03667 4.01058 5.89619 3.76053 5.64614C3.51049 5.39609 3.37001 5.05695 3.37001 4.70333Z" fill="#6A8FFF"/>
<path id="Vector_2" fill-rule="evenodd" clip-rule="evenodd" d="M0.666672 2.66667C0.666672 2.13623 0.877385 1.62753 1.25246 1.25245C1.62753 0.87738 2.13624 0.666666 2.66667 0.666666H13.3333C13.8638 0.666666 14.3725 0.87738 14.7476 1.25245C15.1226 1.62753 15.3333 2.13623 15.3333 2.66667V13.3333C15.3333 13.8638 15.1226 14.3725 14.7476 14.7475C14.3725 15.1226 13.8638 15.3333 13.3333 15.3333H2.66667C2.13624 15.3333 1.62753 15.1226 1.25246 14.7475C0.877385 14.3725 0.666672 13.8638 0.666672 13.3333V2.66667ZM2.66667 2H13.3333C13.5101 2 13.6797 2.07024 13.8047 2.19526C13.9298 2.32029 14 2.48986 14 2.66667V13.3333C14 13.5101 13.9298 13.6797 13.8047 13.8047C13.6797 13.9298 13.5101 14 13.3333 14H2.66667C2.48986 14 2.32029 13.9298 2.19527 13.8047C2.07024 13.6797 2.00001 13.5101 2.00001 13.3333V2.66667C2.00001 2.48986 2.07024 2.32029 2.19527 2.19526C2.32029 2.07024 2.48986 2 2.66667 2Z" fill="#6A8FFF"/>
</g>
</g>
<defs>
<clipPath id="clip0_1905_736">
<rect width="16" height="16" fill="white"/>
</clipPath>
</defs>
</svg>
