<svg width="32" height="32" viewBox="0 0 32 32" fill="none" xmlns="http://www.w3.org/2000/svg">
<g id="iconamoon:exit-fill">
<path id="Vector" fill-rule="evenodd" clip-rule="evenodd" d="M20 4.00134C20.1751 4.00134 20.3485 4.03583 20.5102 4.10284C20.672 4.16984 20.819 4.26806 20.9428 4.39187C21.0666 4.51568 21.1648 4.66266 21.2318 4.82443C21.2988 4.9862 21.3333 5.15958 21.3333 5.33468C21.3333 5.50977 21.2988 5.68315 21.2318 5.84492C21.1648 6.00669 21.0666 6.15367 20.9428 6.27749C20.819 6.4013 20.672 6.49951 20.5102 6.56652C20.3485 6.63352 20.1751 6.66801 20 6.66801H7.99998V24.0013C7.99998 24.355 8.14046 24.6941 8.3905 24.9442C8.64055 25.1942 8.97969 25.3347 9.33331 25.3347H20C20.3536 25.3347 20.6927 25.4752 20.9428 25.7252C21.1928 25.9753 21.3333 26.3144 21.3333 26.668C21.3333 27.0216 21.1928 27.3608 20.9428 27.6108C20.6927 27.8609 20.3536 28.0013 20 28.0013H9.33331C8.27245 28.0013 7.25503 27.5799 6.50489 26.8298C5.75474 26.0796 5.33331 25.0622 5.33331 24.0013V5.33468C5.33331 4.98105 5.47379 4.64192 5.72384 4.39187C5.97389 4.14182 6.31302 4.00134 6.66665 4.00134H20ZM22.276 11.0587C22.0896 10.8723 21.8522 10.7454 21.5937 10.694C21.3352 10.6425 21.0673 10.6688 20.8237 10.7695C20.5802 10.8702 20.3719 11.0409 20.2253 11.2599C20.0787 11.4789 20.0003 11.7365 20 12V14.6667H12C11.6464 14.6667 11.3072 14.8072 11.0572 15.0572C10.8071 15.3072 10.6666 15.6464 10.6666 16C10.6666 16.3536 10.8071 16.6928 11.0572 16.9428C11.3072 17.1929 11.6464 17.3333 12 17.3333H20V20C20 20.2637 20.0783 20.5214 20.2248 20.7406C20.3713 20.9598 20.5795 21.1307 20.8231 21.2316C21.0667 21.3325 21.3348 21.3589 21.5934 21.3075C21.852 21.256 22.0895 21.1291 22.276 20.9427L26.276 16.9427C26.5259 16.6926 26.6664 16.3536 26.6664 16C26.6664 15.6465 26.5259 15.3074 26.276 15.0573L22.276 11.0587Z" fill="#3566FB"/>
</g>
</svg>
