<svg width="30" height="30" viewBox="0 0 30 30" fill="none" xmlns="http://www.w3.org/2000/svg">
<g id="3" clip-path="url(#clip0_2355_649)">
<path id="Vector" d="M25.8105 5.18555L22.7637 8.23242L24.3164 9.78516C24.8672 10.3359 24.8672 11.2266 24.3164 11.7715L23.2969 12.791C23.9883 14.3203 24.375 16.0195 24.375 17.8066C24.375 24.5391 18.9199 29.9941 12.1875 29.9941C5.45508 29.9941 0 24.5449 0 17.8125C0 11.0801 5.45508 5.625 12.1875 5.625C13.9746 5.625 15.6738 6.01172 17.2031 6.70312L18.2227 5.68359C18.7734 5.13281 19.6641 5.13281 20.209 5.68359L21.7617 7.23633L24.8086 4.18945L25.8105 5.18555ZM29.2969 3.51562H27.8906C27.5039 3.51562 27.1875 3.83203 27.1875 4.21875C27.1875 4.60547 27.5039 4.92188 27.8906 4.92188H29.2969C29.6836 4.92188 30 4.60547 30 4.21875C30 3.83203 29.6836 3.51562 29.2969 3.51562ZM25.7812 0C25.3945 0 25.0781 0.316406 25.0781 0.703125V2.10938C25.0781 2.49609 25.3945 2.8125 25.7812 2.8125C26.168 2.8125 26.4844 2.49609 26.4844 2.10938V0.703125C26.4844 0.316406 26.168 0 25.7812 0ZM27.7676 3.22266L28.7637 2.22656C29.0391 1.95117 29.0391 1.50586 28.7637 1.23047C28.4883 0.955078 28.043 0.955078 27.7676 1.23047L26.7715 2.22656C26.4961 2.50195 26.4961 2.94727 26.7715 3.22266C27.0527 3.49805 27.498 3.49805 27.7676 3.22266ZM23.7949 3.22266C24.0703 3.49805 24.5156 3.49805 24.791 3.22266C25.0664 2.94727 25.0664 2.50195 24.791 2.22656L23.7949 1.23047C23.5195 0.955078 23.0742 0.955078 22.7988 1.23047C22.5234 1.50586 22.5234 1.95117 22.7988 2.22656L23.7949 3.22266ZM27.7676 5.21484C27.4922 4.93945 27.0469 4.93945 26.7715 5.21484C26.4961 5.49023 26.4961 5.93555 26.7715 6.21094L27.7676 7.20703C28.043 7.48242 28.4883 7.48242 28.7637 7.20703C29.0391 6.93164 29.0391 6.48633 28.7637 6.21094L27.7676 5.21484ZM6.5625 15.9375C6.5625 13.8691 8.24414 12.1875 10.3125 12.1875C10.8281 12.1875 11.25 11.7656 11.25 11.25C11.25 10.7344 10.8281 10.3125 10.3125 10.3125C7.21289 10.3125 4.6875 12.8379 4.6875 15.9375C4.6875 16.4531 5.10938 16.875 5.625 16.875C6.14062 16.875 6.5625 16.4531 6.5625 15.9375Z" fill="#FF4F4F"/>
</g>
<defs>
<clipPath id="clip0_2355_649">
<rect width="30" height="30" fill="white"/>
</clipPath>
</defs>
</svg>
