<svg width="32" height="32" viewBox="0 0 32 32" fill="none" xmlns="http://www.w3.org/2000/svg">
<g id="1" clip-path="url(#clip0_2355_253)">
<g id="Group">
<path id="Vector" d="M22.6667 4C23.0423 3.99998 23.4137 4.07932 23.7565 4.2328C24.0993 4.38629 24.4058 4.61048 24.656 4.89067L24.8 5.06667L29.7387 11.652C30.0876 12.1172 30.2749 12.6838 30.2721 13.2654C30.2692 13.8469 30.0762 14.4116 29.7227 14.8733L29.5787 15.0467L17.2333 28.6253C16.9387 28.9496 16.5283 29.1448 16.0909 29.1687C15.6535 29.1927 15.2242 29.0435 14.896 28.7533L14.7667 28.6253L2.42134 15.0453C2.03004 14.6149 1.79024 14.0683 1.73848 13.4889C1.68673 12.9094 1.82586 12.329 2.13467 11.836L2.26134 11.652L7.20001 5.06667C7.42539 4.76605 7.71176 4.51646 8.04035 4.33424C8.36893 4.15203 8.73231 4.04131 9.10667 4.00933L9.33334 4H22.6667ZM18.2533 7.81733L19.104 11.676C19.1126 11.7149 19.1123 11.7553 19.1032 11.7941C19.0942 11.8329 19.0765 11.8692 19.0516 11.9002C19.0266 11.9313 18.995 11.9564 18.9591 11.9737C18.9232 11.9909 18.8839 11.9999 18.844 12H13.156C13.1162 11.9999 13.0768 11.9909 13.0409 11.9737C13.005 11.9564 12.9734 11.9313 12.9485 11.9002C12.9235 11.8692 12.9059 11.8329 12.8968 11.7941C12.8877 11.7553 12.8874 11.7149 12.896 11.676L13.7467 7.81733C13.808 7.54 13.4507 7.372 13.276 7.596L9.90134 11.9253C9.86365 11.9737 9.81044 12.0076 9.75067 12.0213L5.448 13.0093C5.17734 13.072 5.17067 13.456 5.44 13.528L9.65334 14.6373C9.68821 14.6466 9.72085 14.6628 9.74927 14.685C9.77769 14.7073 9.8013 14.735 9.81867 14.7667L15.7653 25.5933C15.7883 25.6353 15.8221 25.6704 15.8633 25.6948C15.9045 25.7192 15.9515 25.7321 15.9993 25.7321C16.0472 25.7321 16.0942 25.7192 16.1354 25.6948C16.1765 25.6704 16.2104 25.6353 16.2333 25.5933L22.18 14.7667C22.1975 14.7349 22.2213 14.7071 22.25 14.6848C22.2787 14.6626 22.3116 14.6464 22.3467 14.6373L26.56 13.528C26.8293 13.456 26.8227 13.072 26.552 13.0093L22.2493 12.0213C22.1896 12.0076 22.1364 11.9737 22.0987 11.9253L18.7253 7.596C18.5493 7.372 18.192 7.54 18.2533 7.81733ZM18.9707 14.6667C19.0077 14.6667 19.0443 14.6744 19.0782 14.6894C19.112 14.7044 19.1424 14.7262 19.1674 14.7535C19.1923 14.7809 19.2113 14.8131 19.2231 14.8482C19.235 14.8833 19.2393 14.9205 19.236 14.9573L19.2173 15.032L16.248 22.4587C16.231 22.5017 16.203 22.5396 16.1668 22.5686C16.1307 22.5976 16.0876 22.6167 16.0419 22.6239C15.9961 22.6312 15.9493 22.6264 15.9059 22.6101C15.8626 22.5937 15.8242 22.5663 15.7947 22.5307L15.752 22.4573L12.7827 15.032C12.7689 14.9976 12.7624 14.9608 12.7636 14.9238C12.7649 14.8868 12.7738 14.8504 12.7899 14.8171C12.8059 14.7837 12.8287 14.754 12.8569 14.73C12.885 14.7059 12.9179 14.688 12.9533 14.6773L13.0293 14.6667H18.9707Z" fill="#56BB74"/>
</g>
</g>
<defs>
<clipPath id="clip0_2355_253">
<rect width="32" height="32" fill="white"/>
</clipPath>
</defs>
</svg>
