<svg width="16" height="16" viewBox="0 0 16 16" fill="none" xmlns="http://www.w3.org/2000/svg">
<g id="mingcute:telegram-fill" clip-path="url(#clip0_2499_2779)">
<g id="Group">
<path id="Vector" fill-rule="evenodd" clip-rule="evenodd" d="M13.1847 2.95331C13.3495 2.88397 13.5298 2.86006 13.7069 2.88405C13.884 2.90805 14.0515 2.97909 14.1918 3.08977C14.3322 3.20044 14.4403 3.34672 14.505 3.51337C14.5696 3.68001 14.5884 3.86094 14.5594 4.03731L13.0474 13.2086C12.9007 14.0933 11.9301 14.6006 11.1187 14.16C10.4401 13.7913 9.43205 13.2233 8.52539 12.6306C8.07205 12.334 6.68339 11.384 6.85405 10.708C7.00072 10.13 9.33405 7.95798 10.6674 6.66664C11.1907 6.15931 10.9521 5.86664 10.3341 6.33331C8.79939 7.49198 6.33539 9.25398 5.52072 9.74998C4.80205 10.1873 4.42739 10.262 3.97939 10.1873C3.16205 10.0513 2.40405 9.84064 1.78539 9.58398C0.949387 9.23731 0.990054 8.08798 1.78472 7.75331L13.1847 2.95331Z" fill="white"/>
</g>
</g>
<defs>
<clipPath id="clip0_2499_2779">
<rect width="16" height="16" fill="white"/>
</clipPath>
</defs>
</svg>
