<svg width="17" height="17" viewBox="0 0 17 17" fill="none" xmlns="http://www.w3.org/2000/svg">
<g id="ion:logo-vk">
<path id="Vector" fill-rule="evenodd" clip-rule="evenodd" d="M16.0936 4.38281C16.2118 4.00828 16.0936 3.73602 15.5706 3.73602H13.8318C13.3931 3.73602 13.1906 3.97441 13.0724 4.22941C13.0724 4.22941 12.1779 6.40754 10.9288 7.81967C10.5237 8.22807 10.3381 8.3642 10.1187 8.3642C10.0005 8.3642 9.84838 8.22807 9.84838 7.85387V4.36521C9.84838 3.92295 9.71357 3.71875 9.34203 3.71875H6.60742C6.33715 3.71875 6.16848 3.92295 6.16848 4.12715C6.16848 4.55248 6.79303 4.65475 6.86043 5.84574V8.43359C6.86043 8.99506 6.76082 9.09766 6.53969 9.09766C5.949 9.09766 4.5143 6.9026 3.65367 4.40141C3.48633 3.90602 3.31633 3.71875 2.87738 3.71875H1.12193C0.615586 3.71875 0.53125 3.95682 0.53125 4.21215C0.53125 4.67168 1.12193 6.98561 3.28246 10.0483C4.71717 12.1401 6.75949 13.2643 8.59928 13.2643C9.71358 13.2643 9.84838 13.009 9.84838 12.5837V11.0012C9.84838 10.4909 9.94965 10.4059 10.3043 10.4059C10.5573 10.4059 11.0131 10.5417 12.0428 11.5457C13.2241 12.7367 13.4267 13.2812 14.0851 13.2812H15.8236C16.33 13.2812 16.5664 13.0259 16.4312 12.5325C16.2795 12.0391 15.7054 11.3246 14.9627 10.4739C14.5576 9.99779 13.95 9.4702 13.7644 9.21486C13.5113 8.87453 13.5788 8.7384 13.7644 8.43227C13.7474 8.43227 15.8744 5.40348 16.0936 4.38148" fill="white"/>
</g>
</svg>
